<?xml version="1.0" standalone="no"?>
<!DOCTYPE svg PUBLIC "-//W3C//DTD SVG 20010904//EN"
 "http://www.w3.org/TR/2001/REC-SVG-20010904/DTD/svg10.dtd">
<svg version="1.0" xmlns="http://www.w3.org/2000/svg"
 width="200.000000pt" height="200.000000pt" viewBox="0 0 200.000000 200.000000"
 preserveAspectRatio="xMidYMid meet">
<metadata>
Created by potrace 1.14, written by Peter Selinger 2001-2017
</metadata>
<g transform="translate(0.000000,200.000000) scale(0.100000,-0.100000)"
fill="#000000" stroke="none">
<path d="M907 1734 c-2 -2 -21 -6 -43 -9 -172 -26 -390 -167 -472 -307 -17
-30 -18 -30 -83 -25 -64 5 -125 27 -142 51 -5 6 -5 -5 -2 -24 9 -48 46 -108
93 -154 l39 -39 -15 -56 c-11 -37 -16 -97 -16 -176 0 -102 5 -133 27 -205 79
-251 262 -428 522 -505 94 -28 288 -26 385 4 184 57 317 154 419 307 114 170
151 389 100 585 -9 37 -4 69 11 69 18 0 97 117 107 158 10 40 10 42 -5 29 -33
-28 -64 -39 -131 -44 l-68 -5 -23 33 c-13 19 -31 42 -41 51 -9 10 -23 26 -31
36 -25 35 -129 112 -196 146 -108 54 -201 78 -323 81 -59 1 -110 1 -112 -1z"/>
</g>
</svg>
