<?xml version="1.0" standalone="no"?>
<!DOCTYPE svg PUBLIC "-//W3C//DTD SVG 20010904//EN"
 "http://www.w3.org/TR/2001/REC-SVG-20010904/DTD/svg10.dtd">
<svg version="1.0" xmlns="http://www.w3.org/2000/svg"
 width="512.000000pt" height="512.000000pt" viewBox="0 0 512.000000 512.000000"
 preserveAspectRatio="xMidYMid meet">
<metadata>
Created by potrace 1.14, written by Peter Selinger 2001-2017
</metadata>
<g transform="translate(0.000000,512.000000) scale(0.100000,-0.100000)"
fill="#000000" stroke="none">
<path d="M45 3865 c28 -210 170 -425 409 -619 82 -67 275 -196 292 -196 4 0
15 -7 25 -16 15 -14 16 -20 3 -67 -22 -85 -33 -293 -24 -432 11 -150 14 -170
47 -300 157 -614 659 -1023 1403 -1141 173 -28 528 -26 707 4 172 28 273 54
408 104 656 242 1027 767 1026 1452 0 135 -7 227 -27 323 -7 35 -16 27 124
109 243 142 459 350 558 538 41 77 84 204 84 248 l0 29 -32 -34 c-107 -112
-400 -158 -818 -127 -125 9 -318 -1 -445 -24 -79 -14 -81 -13 -170 15 -209 66
-429 102 -725 119 -543 30 -1069 -14 -1375 -115 -71 -23 -88 -26 -150 -18 -38
4 -252 8 -475 8 -421 1 -491 7 -640 51 -73 21 -153 68 -186 107 l-26 32 7 -50z
m1822 -819 c26 -8 73 -26 105 -40 58 -29 170 -122 190 -160 6 -11 -13 2 -43
30 -30 28 -86 66 -124 85 -68 33 -74 34 -190 34 -120 0 -122 0 -197 -38 -174
-85 -278 -256 -278 -455 0 -211 119 -390 312 -469 52 -21 80 -25 158 -26 124
-1 193 24 315 114 24 18 23 15 -10 -20 -85 -90 -237 -151 -378 -151 -377 0
-646 368 -532 729 56 176 229 334 406 370 29 6 63 13 74 15 30 7 137 -4 192
-18z m1670 -6 c34 -9 88 -32 119 -51 77 -47 224 -206 224 -243 0 -5 -14 11
-31 37 -44 67 -130 142 -207 179 -64 32 -72 33 -187 33 -119 0 -122 0 -197
-37 -393 -195 -362 -774 50 -930 44 -17 78 -22 147 -22 119 1 191 27 310 115
24 18 23 15 -10 -20 -149 -158 -432 -197 -640 -88 -74 40 -181 144 -222 217
-37 68 -73 191 -73 251 1 82 28 197 63 271 84 175 232 278 447 312 40 6 139
-5 207 -24z m-1612 -189 c37 -75 39 -76 134 -86 l63 -7 -58 -59 -58 -59 13
-76 c7 -42 11 -78 9 -80 -3 -2 -35 13 -73 33 l-68 36 -69 -37 c-39 -21 -72
-36 -73 -34 -2 2 3 37 10 78 l13 75 -60 62 -61 61 69 7 c38 4 76 11 85 16 9 4
31 38 50 74 18 36 34 65 36 65 1 0 18 -31 38 -69z m1636 4 c16 -35 37 -68 46
-73 10 -5 49 -13 87 -17 l69 -7 -61 -61 -61 -62 15 -74 c8 -40 13 -75 11 -78
-3 -2 -36 12 -75 33 l-69 37 -68 -36 c-38 -20 -70 -36 -71 -34 -2 1 2 37 8 80
l11 79 -57 56 -58 57 58 8 c105 14 101 12 139 87 19 39 38 70 41 70 3 0 18
-29 35 -65z m-701 -1138 c0 -10 -576 -5 -586 6 -5 4 58 74 139 155 l148 146
149 -149 c83 -82 150 -153 150 -158z"/>
</g>
</svg>
