<?xml version="1.0" standalone="no"?>
<!DOCTYPE svg PUBLIC "-//W3C//DTD SVG 20010904//EN"
 "http://www.w3.org/TR/2001/REC-SVG-20010904/DTD/svg10.dtd">
<svg version="1.0" xmlns="http://www.w3.org/2000/svg"
 width="16.000000pt" height="16.000000pt" viewBox="0 0 16.000000 16.000000"
 preserveAspectRatio="xMidYMid meet">
<metadata>
Created by potrace 1.16, written by Peter Selinger 2001-2019
</metadata>
<g transform="translate(0.000000,16.000000) scale(0.008000,-0.010127)"
fill="#000000" stroke="none">
<path d="M157 1272 c-16 -24 13 -119 53 -174 30 -41 61 -67 142 -115 56 -35
127 -73 155 -85 l53 -22 27 27 c81 77 197 75 268 -4 l30 -33 -37 31 c-51 43
-105 51 -163 23 -105 -51 -126 -187 -40 -270 27 -26 44 -34 84 -38 29 -2 64 1
81 8 44 18 89 74 96 121 7 40 7 41 40 34 42 -7 43 3 14 98 -24 76 -84 170
-135 210 -88 69 -224 105 -360 93 -50 -4 -98 0 -164 14 -97 20 -128 37 -133
74 -2 15 -5 17 -11 8z"/>
<path d="M1841 1280 c-1 -3 -4 -14 -6 -25 -9 -49 -71 -65 -290 -75 -137 -6
-181 -12 -228 -30 -61 -23 -128 -69 -177 -123 -41 -44 -100 -164 -107 -217 -5
-38 -4 -43 11 -37 10 4 23 7 31 7 7 0 15 15 19 32 18 89 106 154 195 146 44
-4 129 -44 117 -55 -2 -3 -15 2 -28 10 -92 58 -217 -5 -233 -117 -15 -95 62
-186 155 -186 118 0 201 138 141 235 -16 28 -16 31 -2 32 28 3 133 53 203 99
38 24 73 44 77 44 5 0 29 23 54 50 50 56 81 131 74 182 -2 18 -5 31 -6 28z"/>
</g>
</svg>
