<?xml version="1.0" standalone="no"?>
<!DOCTYPE svg PUBLIC "-//W3C//DTD SVG 20010904//EN"
 "http://www.w3.org/TR/2001/REC-SVG-20010904/DTD/svg10.dtd">
<svg version="1.0" xmlns="http://www.w3.org/2000/svg"
 width="16.000000pt" height="16.000000pt" viewBox="0 0 16.000000 16.000000"
 preserveAspectRatio="xMidYMid meet">

<g transform="translate(0.000000,16.000000) scale(0.100000,-0.100000)"
fill="#000000" stroke="none">
<path d="M18 101 c12 -11 22 -24 22 -30 0 -14 27 -14 36 0 4 8 9 8 17 0 15
-15 37 -14 37 1 0 6 7 20 17 30 15 17 14 18 -15 18 -18 0 -35 -7 -40 -16 -8
-14 -10 -14 -21 0 -8 9 -28 16 -45 16 l-31 -1 23 -18z"/>
</g>
</svg>
